<?xml version="1.0" encoding="UTF-8"?>
<!DOCTYPE svg PUBLIC "-//W3C//DTD SVG 1.1//EN" "http://www.w3.org/Graphics/SVG/1.1/DTD/svg11.dtd">
<!-- Creator: CorelDRAW X8 -->
<svg xmlns="http://www.w3.org/2000/svg" xml:space="preserve" width="8.80309in" height="6in" version="1.1" style="shape-rendering:geometricPrecision; text-rendering:geometricPrecision; image-rendering:optimizeQuality; fill-rule:evenodd; clip-rule:evenodd"
viewBox="0 0 91326 62246"
 xmlns:xlink="http://www.w3.org/1999/xlink">
 <defs>
  <style type="text/css">
   <![CDATA[
    .fil6 {fill:#FEFEFE}
    .fil10 {fill:#1A237E}
    .fil13 {fill:#303892}
    .fil11 {fill:#7079CC}
    .fil12 {fill:#868EE0}
    .fil1 {fill:#1A237E;fill-rule:nonzero}
    .fil9 {fill:#303892;fill-rule:nonzero}
    .fil2 {fill:#4B55C2;fill-rule:nonzero}
    .fil7 {fill:#5B63B9;fill-rule:nonzero}
    .fil8 {fill:#7079CC;fill-rule:nonzero}
    .fil0 {fill:#868EE0;fill-rule:nonzero}
    .fil3 {fill:#B6BBED;fill-rule:nonzero}
    .fil5 {fill:#CFCFFF;fill-rule:nonzero}
    .fil4 {fill:white;fill-rule:nonzero}
   ]]>
  </style>
 </defs>
 <g id="Layer_x0020_1">
  <metadata id="CorelCorpID_0Corel-Layer"/>
  <g id="_2490746897440">
   <path class="fil0" d="M444 18030c946,2807 2435,3661 3852,5461 1730,2199 2897,3797 2448,6626 -734,4621 -1048,16147 10446,14640 4120,-540 7376,-3900 9744,-7255 2015,-2854 5641,-3106 8559,-3771 2611,-596 5258,-1413 7785,-2512 39,325 82,631 126,910 449,2828 -718,4427 -2448,6625 -1417,1801 -2906,2655 -3852,5462 -998,2962 -272,6136 1770,8413 1635,1822 3711,3193 5971,3941 4275,1417 8895,587 13351,1046 1911,196 3799,633 5614,1297 1747,640 3426,1489 5202,2031 7759,2366 14206,1676 18643,-3476 3286,-3818 3562,-7080 3646,-9151 279,-6855 -1762,-12213 -8594,-15940 -3317,-1810 -6969,-3045 -10554,-3862 -2918,-666 -6543,-918 -8559,-3772 -2235,-3165 -5260,-6336 -9055,-7137 125,-1173 154,-2399 102,-3677 -84,-2072 -360,-5334 -3647,-9151 -4436,-5153 -10883,-5842 -18642,-3476 -1776,541 -3455,1391 -5202,2030 -1815,665 -3704,1101 -5614,1298 -4456,459 -9076,-371 -13351,1045 -2260,749 -4336,2120 -5971,3942 -2042,2276 -2768,5450 -1770,8413z"/>
   <polygon class="fil1" points="55113,55288 36011,55288 36011,50149 55113,50149 "/>
   <path class="fil2" d="M75192 51826l-59059 0c-1977,0 -3580,-1602 -3580,-3580l0 -40480c0,-1977 1603,-3580 3580,-3580l59059 0c1978,0 3581,1603 3581,3580l0 40480c0,1978 -1603,3580 -3581,3580z"/>
   <path class="fil0" d="M74522 47255l-57920 0c-1215,0 -2200,-984 -2200,-2199l0 -36934c0,-1214 985,-2199 2200,-2199l57920 0c1215,0 2199,985 2199,2199l0 36934c0,1215 -984,2199 -2199,2199z"/>
   <path class="fil2" d="M63324 58080l-35524 0 0 -447c0,-1542 1251,-2792 2793,-2792l29938 0c1543,0 2793,1250 2793,2792l0 447z"/>
   <path class="fil3" d="M70979 38087l-39783 0c-1056,0 -1911,-855 -1911,-1910l0 -25489c0,-1055 855,-1910 1911,-1910l39783 0c1055,0 1911,855 1911,1910l0 25489c0,1055 -856,1910 -1911,1910z"/>
   <path class="fil4" d="M63769 43430l-44509 0c-1180,0 -2137,-957 -2137,-2138l0 -28516c0,-1181 957,-2138 2137,-2138l44509 0c1181,0 2138,957 2138,2138l0 28516c0,1181 -957,2138 -2138,2138z"/>
   <path class="fil1" d="M63769 10638l-44509 0c-1180,0 -2137,957 -2137,2138l0 1870 48784 0 0 -1870c0,-1181 -957,-2138 -2138,-2138z"/>
   <path class="fil5" d="M59633 12716c0,340 -276,616 -617,616 -340,0 -616,-276 -616,-616 0,-341 276,-616 616,-616 341,0 617,275 617,616z"/>
   <path class="fil5" d="M62145 12716c0,340 -276,616 -617,616 -340,0 -616,-276 -616,-616 0,-341 276,-616 616,-616 341,0 617,275 617,616z"/>
   <path class="fil5" d="M64657 12716c0,340 -276,616 -617,616 -340,0 -616,-276 -616,-616 0,-341 276,-616 616,-616 341,0 617,275 617,616z"/>
   <g>
    <g>
     <polygon class="fil6" points="22543,16546 40598,16556 40584,42092 22529,42082 "/>
     <path id="1" class="fil1" d="M40598 16637l-18055 -10 0 -162 18055 10 81 81 -81 81zm0 -162l81 0 0 81 -81 -81zm-95 25617l14 -25536 162 0 -14 25536 -81 81 -81 -81zm162 0l0 81 -81 0 81 -81zm-18136 -91l18055 10 0 162 -18055 -10 -82 -81 82 -81zm0 162l-82 0 0 -81 82 81zm95 -25617l-14 25536 -163 0 15 -25536 81 -81 81 81zm-162 0l0 -81 81 0 -81 81z"/>
    </g>
    <path class="fil7" d="M33616 29978c-97,300 -253,570 -463,796l1579 2204c798,-688 1371,-1628 1588,-2700l-2704 -300z"/>
    <path class="fil8" d="M32005 27183c920,191 1617,967 1708,1918l2701 298c0,-30 3,-60 3,-91 0,-2531 -1938,-4607 -4412,-4831l0 2706z"/>
    <path class="fil9" d="M29966 27853c300,-333 698,-575 1158,-670l0 -2706c-1442,129 -2695,889 -3497,1999l2339 1377z"/>
    <path class="fil0" d="M32439 31290c-268,119 -563,188 -876,188 -1197,0 -2169,-972 -2169,-2170 0,-245 50,-475 124,-694l-2338 -1378c-297,629 -471,1329 -471,2072 0,2681 2173,4853 4854,4853 895,0 1732,-245 2451,-669l-1575 -2202z"/>
    <polygon class="fil1" points="24409,18925 26669,18925 26669,18267 24409,18267 "/>
    <polygon class="fil7" points="24409,20423 26669,20423 26669,19766 24409,19766 "/>
    <polygon class="fil9" points="24409,21922 26669,21922 26669,21264 24409,21264 "/>
    <polygon class="fil0" points="24409,23420 26669,23420 26669,22763 24409,22763 "/>
    <polygon class="fil0" points="28199,19040 38717,19040 38717,18300 28199,18300 "/>
    <polygon class="fil0" points="28199,21250 38717,21250 38717,20511 28199,20511 "/>
    <polygon class="fil0" points="28199,23461 38717,23461 38717,22722 28199,22722 "/>
    <polygon class="fil0" points="28199,22355 38717,22355 38717,21617 28199,21617 "/>
    <polygon class="fil0" points="28199,20145 38717,20145 38717,19406 28199,19406 "/>
    <polygon class="fil1" points="24410,39916 24888,39916 24888,34836 24410,34836 "/>
    <polygon class="fil1" points="24409,40395 38717,40395 38717,39916 24409,39916 "/>
    <polygon class="fil7" points="26143,39916 27424,39916 27424,37657 26143,37657 "/>
    <polygon class="fil0" points="26143,37657 27424,37657 27424,36528 26143,36528 "/>
    <polygon class="fil7" points="28531,39916 29812,39916 29812,36679 28531,36679 "/>
    <polygon class="fil0" points="28531,36679 29812,36679 29812,36032 28531,36032 "/>
    <polygon class="fil7" points="30920,39916 32201,39916 32201,38273 30920,38273 "/>
    <polygon class="fil0" points="30920,38273 32201,38273 32201,37093 30920,37093 "/>
    <polygon class="fil7" points="33309,39916 34590,39916 34590,38975 33309,38975 "/>
    <polygon class="fil0" points="33309,38975 34590,38975 34590,38034 33309,38034 "/>
    <g>
     <g>
      <polygon class="fil6" points="42446,16546 60501,16556 60487,42092 42431,42082 "/>
      <path id="1" class="fil1" d="M60501 16637l-18055 -10 0 -162 18055 10 81 81 -81 81zm0 -162l81 0 0 81 -81 -81zm-95 25617l14 -25536 162 0 -14 25536 -81 81 -81 -81zm162 0l0 81 -81 0 81 -81zm-18137 -91l18056 10 0 162 -18056 -10 -81 -81 81 -81zm0 162l-81 0 0 -81 81 81zm96 -25617l-15 25536 -162 0 14 -25536 82 -81 81 81zm-163 0l0 -81 82 0 -82 81z"/>
     </g>
     <polygon class="fil10" points="44711,29746 46271,29747 46268,31166 44709,31165 "/>
     <polygon class="fil11" points="46513,29136 48073,29136 48071,31166 46512,31166 "/>
     <polygon class="fil11" points="48316,27714 49875,27714 49874,31167 48315,31167 "/>
     <polygon class="fil10" points="50119,28193 51679,28194 51677,31168 50118,31167 "/>
     <polygon class="fil10" points="51922,29680 53481,29681 53480,31169 51921,31169 "/>
     <polygon class="fil12" points="53679,29117 55238,29118 55237,31167 53678,31167 "/>
     <polygon class="fil13" points="55483,28193 57042,28194 57040,31168 55481,31167 "/>
     <polygon class="fil12" points="57285,26229 58844,26230 58843,31169 57284,31169 "/>
     <polygon class="fil12" points="44093,33266 50858,33270 50858,33719 44093,33715 "/>
     <polygon class="fil12" points="44092,34053 50858,34056 50857,34506 44092,34502 "/>
     <polygon class="fil12" points="44092,34839 50857,34843 50857,35292 44092,35289 "/>
     <polygon class="fil12" points="44092,35626 50857,35630 50857,36079 44091,36075 "/>
     <polygon class="fil12" points="44091,36412 50856,36416 50856,36866 44091,36862 "/>
     <polygon class="fil12" points="44091,37199 50856,37203 50856,37652 44090,37648 "/>
     <polygon class="fil12" points="44090,37986 50856,37989 50855,38439 44090,38435 "/>
     <polygon class="fil12" points="44090,38772 47472,38774 47472,39224 44089,39222 "/>
     <polygon class="fil1" points="45066,25063 44651,24501 49799,20704 53146,22991 58490,19332 58884,19908 53146,23838 49815,21560 "/>
     <polygon class="fil1" points="58933,21132 58374,21132 58374,19899 57141,19899 57141,19341 58933,19341 "/>
     <path class="fil0" d="M53870 23283c0,-424 -345,-768 -769,-768 -424,0 -768,344 -768,768 0,425 344,769 768,769 424,0 769,-344 769,-769z"/>
     <path class="fil0" d="M50587 21132c0,-424 -344,-769 -769,-769 -424,0 -768,345 -768,769 0,424 344,768 768,768 425,0 769,-344 769,-768z"/>
     <polygon class="fil12" points="52079,33266 58844,33270 58844,33719 52079,33715 "/>
     <polygon class="fil12" points="52079,34053 58844,34056 58844,34506 52079,34502 "/>
     <polygon class="fil12" points="52078,34839 58843,34843 58843,35292 52078,35289 "/>
     <polygon class="fil12" points="52078,35626 58843,35630 58843,36079 52078,36075 "/>
     <polygon class="fil12" points="52077,36412 58843,36416 58842,36866 52077,36862 "/>
     <polygon class="fil12" points="52077,37199 58842,37203 58842,37652 52077,37648 "/>
     <polygon class="fil12" points="52076,37986 58842,37989 58841,38439 52076,38435 "/>
     <polygon class="fil12" points="52076,38772 55459,38774 55459,39224 52076,39222 "/>
    </g>
   </g>
  </g>
 </g>
</svg>
